<svg width="102" height="35" viewBox="0 0 102 35" fill="none" xmlns="http://www.w3.org/2000/svg"><path fill-rule="evenodd" clip-rule="evenodd" d="M63.129 17.992c2.207 0 3.42-1.872 3.42-4.158 0-2.437-1.334-4.25-3.42-4.25-2.087 0-3.42 1.813-3.42 4.25 0 2.286 1.211 4.158 3.42 4.158zm0-10.822c3.793 0 6.174 2.888 6.174 6.664 0 3.822-2.542 6.663-6.174 6.663-3.634 0-6.174-2.841-6.174-6.663 0-3.776 2.38-6.664 6.174-6.664zM13.75 12.711c0-1.549 1.274-3.06 3.01-3.06 1.783 0 3.012 1.438 3.012 3.06H13.75zm6.384 4.394s-1.244.93-2.977.93c-1.84 0-3.408-1.488-3.408-3.22h8.698s.063-.518.063-1.194c0-2.452-1.394-6.398-5.73-6.398-3.593 0-5.932 2.993-5.932 6.398 0 4.31 2.67 6.928 6.212 6.928 2.586 0 4.476-1.595 4.476-1.595l-1.402-1.849zm66.41-4.394c0-1.549 1.274-3.06 3.012-3.06 1.781 0 3.01 1.438 3.01 3.06h-6.022zm6.385 4.394s-1.245.93-2.978.93c-1.838 0-3.407-1.488-3.407-3.22h8.698s.063-.518.063-1.194c0-2.452-1.395-6.398-5.731-6.398-3.593 0-5.931 2.993-5.931 6.398 0 4.31 2.67 6.928 6.211 6.928 2.586 0 4.476-1.595 4.476-1.595l-1.4-1.849zM35.058 11.46v8.893h-2.87v-7.426c0-2.04-.417-3.035-2.122-3.035-1.457 0-3.273 1.475-3.273 3.036v7.424h-2.848V7.616h2.848v1.17s1.483-1.616 3.63-1.616c2.647 0 4.635 1.369 4.635 4.29zm47.008 0v8.893h-2.869v-7.426c0-2.04-.419-3.035-2.124-3.035-1.456 0-3.273 1.475-3.273 3.036v7.424h-2.846V7.616H73.8v1.17s1.483-1.616 3.632-1.616c2.646 0 4.634 1.369 4.634 4.29zm-44.542-.975h-1.29v-2.87h1.29V5.093l2.85-1.827v4.35h2.298v2.87h-2.299v5.201c0 1.934 2.744 1.78 2.744 1.78v2.887c-3.103 0-5.593-.864-5.593-4.667v-5.201z" fill="#444445"/><mask id="mask0_0_47" style="mask-type:luminance" maskUnits="userSpaceOnUse" x="0" y="0" width="102" height="35"><path fill-rule="evenodd" clip-rule="evenodd" d="M.5 34.14h100.624V0H.5v34.14z" fill="#fff"/></mask><g mask="url(#mask0_0_47)" fill-rule="evenodd" clip-rule="evenodd" fill="#444445"><path d="M45.301 20.365h2.856V7.628h-2.855v12.737zm0-14.219h2.856V3.277h-2.855v2.869zm43.202 18.407l-6.632 3.994v-3.994H53.979V3.113h44.057l.013 21.44h-9.546zM101.107 0h-50.2v27.667h27.891v6.475l10.748-6.475h11.577L101.107 0zM10.191 16.652c0 1.681-1.697 3.897-4.873 3.897-2.763 0-4.817-2.219-4.817-2.219l1.661-1.87s1.7 1.524 3.128 1.524c1.202 0 2.01-.546 2.01-1.332 0-2.143-6.5-1.72-6.5-5.752 0-1.49 1.333-3.678 4.852-3.678 2.602 0 4.234 1.873 4.234 1.873l-1.38 1.876S7.18 9.677 5.5 9.677c-1.015 0-1.863.422-1.863 1.17 0 1.708 6.554 1.41 6.554 5.805z"/></g></svg>